ISO-10303-21;
HEADER;
/* Generated by software containing ST-Developer
 * from STEP Tools, Inc. (www.steptools.com) 
 */

FILE_DESCRIPTION(
/* description */ (''),
/* implementation_level */ '2;1');

FILE_NAME(
/* name */ 'TOP.step',
/* time_stamp */ '2026-10-02T21:15:45-04:00',
/* author */ (''),
/* organization */ (''),
/* preprocessor_version */ 'ST-DEVELOPER v20.2',
/* originating_system */ 'Autodesk Translation Framework v15.15.0.0',
/* authorisation */ '');

FILE_SCHEMA (('AUTOMOTIVE_DESIGN { 1 0 10303 214 3 1 1 }'));
ENDSEC;

DATA;
#10=MECHANICAL_DESIGN_GEOMETRIC_PRESENTATION_REPRESENTATION('',(#13),#1239);
#11=SHAPE_REPRESENTATION_RELATIONSHIP('SRR','None',#1246,#12);
#12=ADVANCED_BREP_SHAPE_REPRESENTATION('',(#14),#1238);
#13=STYLED_ITEM('',(#1255),#14);
#14=MANIFOLD_SOLID_BREP('Body1',#727);
#15=FACE_BOUND('',#250,.T.);
#16=FACE_BOUND('',#251,.T.);
#17=FACE_BOUND('',#252,.T.);
#18=FACE_BOUND('',#253,.T.);
#19=FACE_BOUND('',#254,.T.);
#20=FACE_BOUND('',#255,.T.);
#21=FACE_BOUND('',#256,.T.);
#22=FACE_BOUND('',#257,.T.);
#23=FACE_BOUND('',#258,.T.);
#24=FACE_BOUND('',#259,.T.);
#25=FACE_BOUND('',#261,.T.);
#26=FACE_BOUND('',#262,.T.);
#27=FACE_BOUND('',#263,.T.);
#28=FACE_BOUND('',#264,.T.);
#29=FACE_BOUND('',#265,.T.);
#30=FACE_BOUND('',#266,.T.);
#31=FACE_BOUND('',#267,.T.);
#32=FACE_BOUND('',#268,.T.);
#33=FACE_BOUND('',#272,.T.);
#34=FACE_BOUND('',#277,.T.);
#35=PLANE('',#769);
#36=PLANE('',#770);
#37=PLANE('',#771);
#38=PLANE('',#780);
#39=PLANE('',#792);
#40=PLANE('',#793);
#41=PLANE('',#799);
#42=PLANE('',#800);
#43=PLANE('',#807);
#44=PLANE('',#808);
#45=PLANE('',#809);
#46=PLANE('',#810);
#47=PLANE('',#811);
#48=PLANE('',#812);
#49=PLANE('',#813);
#50=PLANE('',#814);
#51=PLANE('',#815);
#52=PLANE('',#816);
#53=PLANE('',#817);
#54=PLANE('',#818);
#55=LINE('',#1053,#115);
#56=LINE('',#1054,#116);
#57=LINE('',#1063,#117);
#58=LINE('',#1064,#118);
#59=LINE('',#1069,#119);
#60=LINE('',#1070,#120);
#61=LINE('',#1079,#121);
#62=LINE('',#1080,#122);
#63=LINE('',#1085,#123);
#64=LINE('',#1086,#124);
#65=LINE('',#1088,#125);
#66=LINE('',#1089,#126);
#67=LINE('',#1094,#127);
#68=LINE('',#1095,#128);
#69=LINE('',#1100,#129);
#70=LINE('',#1101,#130);
#71=LINE('',#1103,#131);
#72=LINE('',#1105,#132);
#73=LINE('',#1107,#133);
#74=LINE('',#1108,#134);
#75=LINE('',#1115,#135);
#76=LINE('',#1117,#136);
#77=LINE('',#1119,#137);
#78=LINE('',#1121,#138);
#79=LINE('',#1123,#139);
#80=LINE('',#1124,#140);
#81=LINE('',#1127,#141);
#82=LINE('',#1129,#142);
#83=LINE('',#1131,#143);
#84=LINE('',#1132,#144);
#85=LINE('',#1150,#145);
#86=LINE('',#1152,#146);
#87=LINE('',#1154,#147);
#88=LINE('',#1156,#148);
#89=LINE('',#1158,#149);
#90=LINE('',#1159,#150);
#91=LINE('',#1162,#151);
#92=LINE('',#1164,#152);
#93=LINE('',#1166,#153);
#94=LINE('',#1167,#154);
#95=LINE('',#1182,#155);
#96=LINE('',#1187,#156);
#97=LINE('',#1194,#157);
#98=LINE('',#1199,#158);
#99=LINE('',#1203,#159);
#100=LINE('',#1205,#160);
#101=LINE('',#1207,#161);
#102=LINE('',#1209,#162);
#103=LINE('',#1211,#163);
#104=LINE('',#1213,#164);
#105=LINE('',#1215,#165);
#106=LINE('',#1216,#166);
#107=LINE('',#1218,#167);
#108=LINE('',#1220,#168);
#109=LINE('',#1225,#169);
#110=LINE('',#1226,#170);
#111=LINE('',#1228,#171);
#112=LINE('',#1230,#172);
#113=LINE('',#1232,#173);
#114=LINE('',#1234,#174);
#115=VECTOR('',#839,10.);
#116=VECTOR('',#840,10.);
#117=VECTOR('',#851,10.);
#118=VECTOR('',#852,10.);
#119=VECTOR('',#857,10.);
#120=VECTOR('',#858,10.);
#121=VECTOR('',#869,10.);
#122=VECTOR('',#870,10.);
#123=VECTOR('',#875,10.);
#124=VECTOR('',#876,10.);
#125=VECTOR('',#879,10.);
#126=VECTOR('',#880,10.);
#127=VECTOR('',#885,10.);
#128=VECTOR('',#886,10.);
#129=VECTOR('',#891,10.);
#130=VECTOR('',#892,10.);
#131=VECTOR('',#895,10.);
#132=VECTOR('',#898,10.);
#133=VECTOR('',#901,10.);
#134=VECTOR('',#902,10.);
#135=VECTOR('',#907,10.);
#136=VECTOR('',#908,10.);
#137=VECTOR('',#909,10.);
#138=VECTOR('',#910,10.);
#139=VECTOR('',#911,10.);
#140=VECTOR('',#912,10.);
#141=VECTOR('',#913,10.);
#142=VECTOR('',#914,10.);
#143=VECTOR('',#915,10.);
#144=VECTOR('',#916,10.);
#145=VECTOR('',#933,10.);
#146=VECTOR('',#934,10.);
#147=VECTOR('',#935,10.);
#148=VECTOR('',#936,10.);
#149=VECTOR('',#937,10.);
#150=VECTOR('',#938,10.);
#151=VECTOR('',#939,10.);
#152=VECTOR('',#940,10.);
#153=VECTOR('',#941,10.);
#154=VECTOR('',#942,10.);
#155=VECTOR('',#957,1.975);
#156=VECTOR('',#964,3.975);
#157=VECTOR('',#973,1.975);
#158=VECTOR('',#980,3.97499999999999);
#159=VECTOR('',#987,2.);
#160=VECTOR('',#990,2.);
#161=VECTOR('',#993,2.);
#162=VECTOR('',#996,2.);
#163=VECTOR('',#999,2.);
#164=VECTOR('',#1002,2.);
#165=VECTOR('',#1005,10.);
#166=VECTOR('',#1006,10.);
#167=VECTOR('',#1009,10.);
#168=VECTOR('',#1012,10.);
#169=VECTOR('',#1021,10.);
#170=VECTOR('',#1022,10.);
#171=VECTOR('',#1025,10.);
#172=VECTOR('',#1028,10.);
#173=VECTOR('',#1031,10.);
#174=VECTOR('',#1034,10.);
#175=CYLINDRICAL_SURFACE('',#749,1.);
#176=CYLINDRICAL_SURFACE('',#754,1.);
#177=CYLINDRICAL_SURFACE('',#755,1.);
#178=CYLINDRICAL_SURFACE('',#761,1.);
#179=CYLINDRICAL_SURFACE('',#762,1.);
#180=CYLINDRICAL_SURFACE('',#764,1.);
#181=CYLINDRICAL_SURFACE('',#765,1.);
#182=CYLINDRICAL_SURFACE('',#767,1.);
#183=CYLINDRICAL_SURFACE('',#787,1.975);
#184=CYLINDRICAL_SURFACE('',#790,3.975);
#185=CYLINDRICAL_SURFACE('',#794,1.975);
#186=CYLINDRICAL_SURFACE('',#797,3.97499999999999);
#187=CYLINDRICAL_SURFACE('',#801,2.);
#188=CYLINDRICAL_SURFACE('',#802,2.);
#189=CYLINDRICAL_SURFACE('',#803,2.);
#190=CYLINDRICAL_SURFACE('',#804,2.);
#191=CYLINDRICAL_SURFACE('',#805,2.);
#192=CYLINDRICAL_SURFACE('',#806,2.);
#193=FACE_OUTER_BOUND('',#235,.T.);
#194=FACE_OUTER_BOUND('',#236,.T.);
#195=FACE_OUTER_BOUND('',#237,.T.);
#196=FACE_OUTER_BOUND('',#238,.T.);
#197=FACE_OUTER_BOUND('',#239,.T.);
#198=FACE_OUTER_BOUND('',#240,.T.);
#199=FACE_OUTER_BOUND('',#241,.T.);
#200=FACE_OUTER_BOUND('',#242,.T.);
#201=FACE_OUTER_BOUND('',#243,.T.);
#202=FACE_OUTER_BOUND('',#244,.T.);
#203=FACE_OUTER_BOUND('',#245,.T.);
#204=FACE_OUTER_BOUND('',#246,.T.);
#205=FACE_OUTER_BOUND('',#247,.T.);
#206=FACE_OUTER_BOUND('',#248,.T.);
#207=FACE_OUTER_BOUND('',#249,.T.);
#208=FACE_OUTER_BOUND('',#260,.T.);
#209=FACE_OUTER_BOUND('',#269,.T.);
#210=FACE_OUTER_BOUND('',#270,.T.);
#211=FACE_OUTER_BOUND('',#271,.T.);
#212=FACE_OUTER_BOUND('',#273,.T.);
#213=FACE_OUTER_BOUND('',#274,.T.);
#214=FACE_OUTER_BOUND('',#275,.T.);
#215=FACE_OUTER_BOUND('',#276,.T.);
#216=FACE_OUTER_BOUND('',#278,.T.);
#217=FACE_OUTER_BOUND('',#279,.T.);
#218=FACE_OUTER_BOUND('',#280,.T.);
#219=FACE_OUTER_BOUND('',#281,.T.);
#220=FACE_OUTER_BOUND('',#282,.T.);
#221=FACE_OUTER_BOUND('',#283,.T.);
#222=FACE_OUTER_BOUND('',#284,.T.);
#223=FACE_OUTER_BOUND('',#285,.T.);
#224=FACE_OUTER_BOUND('',#286,.T.);
#225=FACE_OUTER_BOUND('',#287,.T.);
#226=FACE_OUTER_BOUND('',#288,.T.);
#227=FACE_OUTER_BOUND('',#289,.T.);
#228=FACE_OUTER_BOUND('',#290,.T.);
#229=FACE_OUTER_BOUND('',#291,.T.);
#230=FACE_OUTER_BOUND('',#292,.T.);
#231=FACE_OUTER_BOUND('',#293,.T.);
#232=FACE_OUTER_BOUND('',#294,.T.);
#233=FACE_OUTER_BOUND('',#295,.T.);
#234=FACE_OUTER_BOUND('',#296,.T.);
#235=EDGE_LOOP('',(#489,#490,#491));
#236=EDGE_LOOP('',(#492,#493,#494));
#237=EDGE_LOOP('',(#495,#496,#497,#498));
#238=EDGE_LOOP('',(#499,#500,#501));
#239=EDGE_LOOP('',(#502,#503,#504,#505));
#240=EDGE_LOOP('',(#506,#507,#508,#509));
#241=EDGE_LOOP('',(#510,#511,#512));
#242=EDGE_LOOP('',(#513,#514,#515,#516));
#243=EDGE_LOOP('',(#517,#518,#519,#520));
#244=EDGE_LOOP('',(#521,#522,#523,#524));
#245=EDGE_LOOP('',(#525,#526,#527,#528));
#246=EDGE_LOOP('',(#529,#530,#531,#532));
#247=EDGE_LOOP('',(#533,#534,#535,#536));
#248=EDGE_LOOP('',(#537,#538,#539,#540));
#249=EDGE_LOOP('',(#541,#542,#543,#544,#545,#546,#547,#548));
#250=EDGE_LOOP('',(#549));
#251=EDGE_LOOP('',(#550));
#252=EDGE_LOOP('',(#551,#552,#553,#554,#555,#556));
#253=EDGE_LOOP('',(#557,#558,#559,#560));
#254=EDGE_LOOP('',(#561));
#255=EDGE_LOOP('',(#562));
#256=EDGE_LOOP('',(#563));
#257=EDGE_LOOP('',(#564));
#258=EDGE_LOOP('',(#565));
#259=EDGE_LOOP('',(#566));
#260=EDGE_LOOP('',(#567,#568,#569,#570));
#261=EDGE_LOOP('',(#571));
#262=EDGE_LOOP('',(#572,#573,#574,#575,#576,#577));
#263=EDGE_LOOP('',(#578,#579,#580,#581));
#264=EDGE_LOOP('',(#582));
#265=EDGE_LOOP('',(#583));
#266=EDGE_LOOP('',(#584));
#267=EDGE_LOOP('',(#585));
#268=EDGE_LOOP('',(#586));
#269=EDGE_LOOP('',(#587,#588,#589,#590));
#270=EDGE_LOOP('',(#591,#592,#593,#594));
#271=EDGE_LOOP('',(#595));
#272=EDGE_LOOP('',(#596));
#273=EDGE_LOOP('',(#597));
#274=EDGE_LOOP('',(#598,#599,#600,#601));
#275=EDGE_LOOP('',(#602,#603,#604,#605));
#276=EDGE_LOOP('',(#606));
#277=EDGE_LOOP('',(#607));
#278=EDGE_LOOP('',(#608));
#279=EDGE_LOOP('',(#609,#610,#611,#612));
#280=EDGE_LOOP('',(#613,#614,#615,#616));
#281=EDGE_LOOP('',(#617,#618,#619,#620));
#282=EDGE_LOOP('',(#621,#622,#623,#624));
#283=EDGE_LOOP('',(#625,#626,#627,#628));
#284=EDGE_LOOP('',(#629,#630,#631,#632));
#285=EDGE_LOOP('',(#633,#634,#635,#636));
#286=EDGE_LOOP('',(#637,#638,#639,#640));
#287=EDGE_LOOP('',(#641,#642,#643,#644));
#288=EDGE_LOOP('',(#645,#646,#647,#648));
#289=EDGE_LOOP('',(#649,#650,#651,#652));
#290=EDGE_LOOP('',(#653,#654,#655,#656));
#291=EDGE_LOOP('',(#657,#658,#659,#660));
#292=EDGE_LOOP('',(#661,#662,#663,#664));
#293=EDGE_LOOP('',(#665,#666,#667,#668));
#294=EDGE_LOOP('',(#669,#670,#671,#672));
#295=EDGE_LOOP('',(#673,#674,#675,#676));
#296=EDGE_LOOP('',(#677,#678,#679,#680));
#297=CIRCLE('',#742,1.);
#298=CIRCLE('',#743,0.999999999999996);
#299=CIRCLE('',#744,0.999999999999979);
#300=CIRCLE('',#746,0.999999999999996);
#301=CIRCLE('',#747,0.999999999999999);
#302=CIRCLE('',#748,0.999999999999999);
#303=CIRCLE('',#751,1.);
#304=CIRCLE('',#752,0.999999999999996);
#305=CIRCLE('',#753,1.);
#306=CIRCLE('',#756,1.);
#307=CIRCLE('',#758,1.);
#308=CIRCLE('',#759,1.);
#309=CIRCLE('',#760,0.999999999999999);
#310=CIRCLE('',#763,1.);
#311=CIRCLE('',#766,1.);
#312=CIRCLE('',#768,1.);
#313=CIRCLE('',#772,3.975);
#314=CIRCLE('',#773,2.);
#315=CIRCLE('',#774,2.);
#316=CIRCLE('',#775,2.);
#317=CIRCLE('',#776,2.);
#318=CIRCLE('',#777,2.);
#319=CIRCLE('',#778,2.);
#320=CIRCLE('',#779,3.97499999999999);
#321=CIRCLE('',#781,2.);
#322=CIRCLE('',#782,2.);
#323=CIRCLE('',#783,2.);
#324=CIRCLE('',#784,2.);
#325=CIRCLE('',#785,2.);
#326=CIRCLE('',#786,2.);
#327=CIRCLE('',#788,1.975);
#328=CIRCLE('',#789,1.975);
#329=CIRCLE('',#791,3.975);
#330=CIRCLE('',#795,1.975);
#331=CIRCLE('',#796,1.975);
#332=CIRCLE('',#798,3.97499999999999);
#333=VERTEX_POINT('',#1039);
#334=VERTEX_POINT('',#1040);
#335=VERTEX_POINT('',#1042);
#336=VERTEX_POINT('',#1046);
#337=VERTEX_POINT('',#1047);
#338=VERTEX_POINT('',#1049);
#339=VERTEX_POINT('',#1056);
#340=VERTEX_POINT('',#1057);
#341=VERTEX_POINT('',#1059);
#342=VERTEX_POINT('',#1066);
#343=VERTEX_POINT('',#1067);
#344=VERTEX_POINT('',#1072);
#345=VERTEX_POINT('',#1073);
#346=VERTEX_POINT('',#1075);
#347=VERTEX_POINT('',#1082);
#348=VERTEX_POINT('',#1083);
#349=VERTEX_POINT('',#1091);
#350=VERTEX_POINT('',#1092);
#351=VERTEX_POINT('',#1097);
#352=VERTEX_POINT('',#1098);
#353=VERTEX_POINT('',#1109);
#354=VERTEX_POINT('',#1111);
#355=VERTEX_POINT('',#1113);
#356=VERTEX_POINT('',#1114);
#357=VERTEX_POINT('',#1116);
#358=VERTEX_POINT('',#1118);
#359=VERTEX_POINT('',#1120);
#360=VERTEX_POINT('',#1122);
#361=VERTEX_POINT('',#1125);
#362=VERTEX_POINT('',#1126);
#363=VERTEX_POINT('',#1128);
#364=VERTEX_POINT('',#1130);
#365=VERTEX_POINT('',#1133);
#366=VERTEX_POINT('',#1135);
#367=VERTEX_POINT('',#1137);
#368=VERTEX_POINT('',#1139);
#369=VERTEX_POINT('',#1141);
#370=VERTEX_POINT('',#1143);
#371=VERTEX_POINT('',#1146);
#372=VERTEX_POINT('',#1148);
#373=VERTEX_POINT('',#1149);
#374=VERTEX_POINT('',#1151);
#375=VERTEX_POINT('',#1153);
#376=VERTEX_POINT('',#1155);
#377=VERTEX_POINT('',#1157);
#378=VERTEX_POINT('',#1160);
#379=VERTEX_POINT('',#1161);
#380=VERTEX_POINT('',#1163);
#381=VERTEX_POINT('',#1165);
#382=VERTEX_POINT('',#1168);
#383=VERTEX_POINT('',#1170);
#384=VERTEX_POINT('',#1172);
#385=VERTEX_POINT('',#1174);
#386=VERTEX_POINT('',#1176);
#387=VERTEX_POINT('',#1179);
#388=VERTEX_POINT('',#1181);
#389=VERTEX_POINT('',#1185);
#390=VERTEX_POINT('',#1191);
#391=VERTEX_POINT('',#1193);
#392=VERTEX_POINT('',#1197);
#393=EDGE_CURVE('',#333,#334,#297,.F.);
#394=EDGE_CURVE('',#335,#333,#298,.F.);
#395=EDGE_CURVE('',#334,#335,#299,.F.);
#396=EDGE_CURVE('',#336,#337,#300,.F.);
#397=EDGE_CURVE('',#338,#336,#301,.F.);
#398=EDGE_CURVE('',#337,#338,#302,.F.);
#399=EDGE_CURVE('',#333,#338,#55,.T.);
#400=EDGE_CURVE('',#336,#335,#56,.T.);
#401=EDGE_CURVE('',#339,#340,#303,.F.);
#402=EDGE_CURVE('',#341,#339,#304,.F.);
#403=EDGE_CURVE('',#340,#341,#305,.F.);
#404=EDGE_CURVE('',#339,#333,#57,.T.);
#405=EDGE_CURVE('',#334,#341,#58,.T.);
#406=EDGE_CURVE('',#342,#343,#306,.T.);
#407=EDGE_CURVE('',#343,#340,#59,.T.);
#408=EDGE_CURVE('',#341,#342,#60,.T.);
#409=EDGE_CURVE('',#344,#345,#307,.F.);
#410=EDGE_CURVE('',#346,#344,#308,.F.);
#411=EDGE_CURVE('',#345,#346,#309,.F.);
#412=EDGE_CURVE('',#344,#339,#61,.T.);
#413=EDGE_CURVE('',#340,#346,#62,.T.);
#414=EDGE_CURVE('',#347,#348,#310,.T.);
#415=EDGE_CURVE('',#348,#345,#63,.T.);
#416=EDGE_CURVE('',#346,#347,#64,.T.);
#417=EDGE_CURVE('',#345,#337,#65,.T.);
#418=EDGE_CURVE('',#338,#344,#66,.T.);
#419=EDGE_CURVE('',#349,#350,#311,.T.);
#420=EDGE_CURVE('',#350,#336,#67,.T.);
#421=EDGE_CURVE('',#337,#349,#68,.T.);
#422=EDGE_CURVE('',#351,#352,#312,.T.);
#423=EDGE_CURVE('',#352,#334,#69,.T.);
#424=EDGE_CURVE('',#335,#351,#70,.T.);
#425=EDGE_CURVE('',#351,#350,#71,.T.);
#426=EDGE_CURVE('',#348,#349,#72,.T.);
#427=EDGE_CURVE('',#343,#347,#73,.T.);
#428=EDGE_CURVE('',#352,#342,#74,.T.);
#429=EDGE_CURVE('',#353,#353,#313,.T.);
#430=EDGE_CURVE('',#354,#354,#314,.T.);
#431=EDGE_CURVE('',#355,#356,#75,.T.);
#432=EDGE_CURVE('',#355,#357,#76,.T.);
#433=EDGE_CURVE('',#357,#358,#77,.T.);
#434=EDGE_CURVE('',#358,#359,#78,.T.);
#435=EDGE_CURVE('',#360,#359,#79,.T.);
#436=EDGE_CURVE('',#360,#356,#80,.T.);
#437=EDGE_CURVE('',#361,#362,#81,.T.);
#438=EDGE_CURVE('',#362,#363,#82,.T.);
#439=EDGE_CURVE('',#363,#364,#83,.T.);
#440=EDGE_CURVE('',#364,#361,#84,.T.);
#441=EDGE_CURVE('',#365,#365,#315,.T.);
#442=EDGE_CURVE('',#366,#366,#316,.T.);
#443=EDGE_CURVE('',#367,#367,#317,.T.);
#444=EDGE_CURVE('',#368,#368,#318,.T.);
#445=EDGE_CURVE('',#369,#369,#319,.T.);
#446=EDGE_CURVE('',#370,#370,#320,.T.);
#447=EDGE_CURVE('',#371,#371,#321,.T.);
#448=EDGE_CURVE('',#372,#373,#85,.T.);
#449=EDGE_CURVE('',#373,#374,#86,.T.);
#450=EDGE_CURVE('',#374,#375,#87,.T.);
#451=EDGE_CURVE('',#375,#376,#88,.T.);
#452=EDGE_CURVE('',#376,#377,#89,.T.);
#453=EDGE_CURVE('',#377,#372,#90,.T.);
#454=EDGE_CURVE('',#378,#379,#91,.T.);
#455=EDGE_CURVE('',#379,#380,#92,.T.);
#456=EDGE_CURVE('',#380,#381,#93,.T.);
#457=EDGE_CURVE('',#381,#378,#94,.T.);
#458=EDGE_CURVE('',#382,#382,#322,.T.);
#459=EDGE_CURVE('',#383,#383,#323,.T.);
#460=EDGE_CURVE('',#384,#384,#324,.T.);
#461=EDGE_CURVE('',#385,#385,#325,.T.);
#462=EDGE_CURVE('',#386,#386,#326,.T.);
#463=EDGE_CURVE('',#387,#387,#327,.T.);
#464=EDGE_CURVE('',#387,#388,#95,.T.);
#465=EDGE_CURVE('',#388,#388,#328,.T.);
#466=EDGE_CURVE('',#389,#389,#329,.T.);
#467=EDGE_CURVE('',#389,#353,#96,.T.);
#468=EDGE_CURVE('',#390,#390,#330,.T.);
#469=EDGE_CURVE('',#390,#391,#97,.T.);
#470=EDGE_CURVE('',#391,#391,#331,.T.);
#471=EDGE_CURVE('',#392,#392,#332,.T.);
#472=EDGE_CURVE('',#392,#370,#98,.T.);
#473=EDGE_CURVE('',#371,#354,#99,.T.);
#474=EDGE_CURVE('',#386,#369,#100,.T.);
#475=EDGE_CURVE('',#385,#368,#101,.T.);
#476=EDGE_CURVE('',#384,#367,#102,.T.);
#477=EDGE_CURVE('',#383,#366,#103,.T.);
#478=EDGE_CURVE('',#382,#365,#104,.T.);
#479=EDGE_CURVE('',#381,#363,#105,.T.);
#480=EDGE_CURVE('',#380,#364,#106,.T.);
#481=EDGE_CURVE('',#379,#361,#107,.T.);
#482=EDGE_CURVE('',#378,#362,#108,.T.);
#483=EDGE_CURVE('',#356,#373,#109,.T.);
#484=EDGE_CURVE('',#374,#360,#110,.T.);
#485=EDGE_CURVE('',#359,#375,#111,.T.);
#486=EDGE_CURVE('',#376,#358,#112,.T.);
#487=EDGE_CURVE('',#377,#357,#113,.T.);
#488=EDGE_CURVE('',#355,#372,#114,.T.);
#489=ORIENTED_EDGE('',*,*,#393,.F.);
#490=ORIENTED_EDGE('',*,*,#394,.F.);
#491=ORIENTED_EDGE('',*,*,#395,.F.);
#492=ORIENTED_EDGE('',*,*,#396,.F.);
#493=ORIENTED_EDGE('',*,*,#397,.F.);
#494=ORIENTED_EDGE('',*,*,#398,.F.);
#495=ORIENTED_EDGE('',*,*,#394,.T.);
#496=ORIENTED_EDGE('',*,*,#399,.T.);
#497=ORIENTED_EDGE('',*,*,#397,.T.);
#498=ORIENTED_EDGE('',*,*,#400,.T.);
#499=ORIENTED_EDGE('',*,*,#401,.F.);
#500=ORIENTED_EDGE('',*,*,#402,.F.);
#501=ORIENTED_EDGE('',*,*,#403,.F.);
#502=ORIENTED_EDGE('',*,*,#402,.T.);
#503=ORIENTED_EDGE('',*,*,#404,.T.);
#504=ORIENTED_EDGE('',*,*,#393,.T.);
#505=ORIENTED_EDGE('',*,*,#405,.T.);
#506=ORIENTED_EDGE('',*,*,#406,.T.);
#507=ORIENTED_EDGE('',*,*,#407,.T.);
#508=ORIENTED_EDGE('',*,*,#403,.T.);
#509=ORIENTED_EDGE('',*,*,#408,.T.);
#510=ORIENTED_EDGE('',*,*,#409,.F.);
#511=ORIENTED_EDGE('',*,*,#410,.F.);
#512=ORIENTED_EDGE('',*,*,#411,.F.);
#513=ORIENTED_EDGE('',*,*,#410,.T.);
#514=ORIENTED_EDGE('',*,*,#412,.T.);
#515=ORIENTED_EDGE('',*,*,#401,.T.);
#516=ORIENTED_EDGE('',*,*,#413,.T.);
#517=ORIENTED_EDGE('',*,*,#414,.T.);
#518=ORIENTED_EDGE('',*,*,#415,.T.);
#519=ORIENTED_EDGE('',*,*,#411,.T.);
#520=ORIENTED_EDGE('',*,*,#416,.T.);
#521=ORIENTED_EDGE('',*,*,#409,.T.);
#522=ORIENTED_EDGE('',*,*,#417,.T.);
#523=ORIENTED_EDGE('',*,*,#398,.T.);
#524=ORIENTED_EDGE('',*,*,#418,.T.);
#525=ORIENTED_EDGE('',*,*,#419,.T.);
#526=ORIENTED_EDGE('',*,*,#420,.T.);
#527=ORIENTED_EDGE('',*,*,#396,.T.);
#528=ORIENTED_EDGE('',*,*,#421,.T.);
#529=ORIENTED_EDGE('',*,*,#422,.T.);
#530=ORIENTED_EDGE('',*,*,#423,.T.);
#531=ORIENTED_EDGE('',*,*,#395,.T.);
#532=ORIENTED_EDGE('',*,*,#424,.T.);
#533=ORIENTED_EDGE('',*,*,#424,.F.);
#534=ORIENTED_EDGE('',*,*,#400,.F.);
#535=ORIENTED_EDGE('',*,*,#420,.F.);
#536=ORIENTED_EDGE('',*,*,#425,.F.);
#537=ORIENTED_EDGE('',*,*,#421,.F.);
#538=ORIENTED_EDGE('',*,*,#417,.F.);
#539=ORIENTED_EDGE('',*,*,#415,.F.);
#540=ORIENTED_EDGE('',*,*,#426,.T.);
#541=ORIENTED_EDGE('',*,*,#422,.F.);
#542=ORIENTED_EDGE('',*,*,#425,.T.);
#543=ORIENTED_EDGE('',*,*,#419,.F.);
#544=ORIENTED_EDGE('',*,*,#426,.F.);
#545=ORIENTED_EDGE('',*,*,#414,.F.);
#546=ORIENTED_EDGE('',*,*,#427,.F.);
#547=ORIENTED_EDGE('',*,*,#406,.F.);
#548=ORIENTED_EDGE('',*,*,#428,.F.);
#549=ORIENTED_EDGE('',*,*,#429,.T.);
#550=ORIENTED_EDGE('',*,*,#430,.T.);
#551=ORIENTED_EDGE('',*,*,#431,.F.);
#552=ORIENTED_EDGE('',*,*,#432,.T.);
#553=ORIENTED_EDGE('',*,*,#433,.T.);
#554=ORIENTED_EDGE('',*,*,#434,.T.);
#555=ORIENTED_EDGE('',*,*,#435,.F.);
#556=ORIENTED_EDGE('',*,*,#436,.T.);
#557=ORIENTED_EDGE('',*,*,#437,.T.);
#558=ORIENTED_EDGE('',*,*,#438,.T.);
#559=ORIENTED_EDGE('',*,*,#439,.T.);
#560=ORIENTED_EDGE('',*,*,#440,.T.);
#561=ORIENTED_EDGE('',*,*,#441,.T.);
#562=ORIENTED_EDGE('',*,*,#442,.T.);
#563=ORIENTED_EDGE('',*,*,#443,.T.);
#564=ORIENTED_EDGE('',*,*,#444,.T.);
#565=ORIENTED_EDGE('',*,*,#445,.T.);
#566=ORIENTED_EDGE('',*,*,#446,.T.);
#567=ORIENTED_EDGE('',*,*,#399,.F.);
#568=ORIENTED_EDGE('',*,*,#404,.F.);
#569=ORIENTED_EDGE('',*,*,#412,.F.);
#570=ORIENTED_EDGE('',*,*,#418,.F.);
#571=ORIENTED_EDGE('',*,*,#447,.T.);
#572=ORIENTED_EDGE('',*,*,#448,.T.);
#573=ORIENTED_EDGE('',*,*,#449,.T.);
#574=ORIENTED_EDGE('',*,*,#450,.T.);
#575=ORIENTED_EDGE('',*,*,#451,.T.);
#576=ORIENTED_EDGE('',*,*,#452,.T.);
#577=ORIENTED_EDGE('',*,*,#453,.T.);
#578=ORIENTED_EDGE('',*,*,#454,.T.);
#579=ORIENTED_EDGE('',*,*,#455,.T.);
#580=ORIENTED_EDGE('',*,*,#456,.T.);
#581=ORIENTED_EDGE('',*,*,#457,.T.);
#582=ORIENTED_EDGE('',*,*,#458,.T.);
#583=ORIENTED_EDGE('',*,*,#459,.T.);
#584=ORIENTED_EDGE('',*,*,#460,.T.);
#585=ORIENTED_EDGE('',*,*,#461,.T.);
#586=ORIENTED_EDGE('',*,*,#462,.T.);
#587=ORIENTED_EDGE('',*,*,#463,.F.);
#588=ORIENTED_EDGE('',*,*,#464,.T.);
#589=ORIENTED_EDGE('',*,*,#465,.F.);
#590=ORIENTED_EDGE('',*,*,#464,.F.);
#591=ORIENTED_EDGE('',*,*,#466,.F.);
#592=ORIENTED_EDGE('',*,*,#467,.T.);
#593=ORIENTED_EDGE('',*,*,#429,.F.);
#594=ORIENTED_EDGE('',*,*,#467,.F.);
#595=ORIENTED_EDGE('',*,*,#466,.T.);
#596=ORIENTED_EDGE('',*,*,#463,.T.);
#597=ORIENTED_EDGE('',*,*,#465,.T.);
#598=ORIENTED_EDGE('',*,*,#468,.F.);
#599=ORIENTED_EDGE('',*,*,#469,.T.);
#600=ORIENTED_EDGE('',*,*,#470,.F.);
#601=ORIENTED_EDGE('',*,*,#469,.F.);
#602=ORIENTED_EDGE('',*,*,#471,.F.);
#603=ORIENTED_EDGE('',*,*,#472,.T.);
#604=ORIENTED_EDGE('',*,*,#446,.F.);
#605=ORIENTED_EDGE('',*,*,#472,.F.);
#606=ORIENTED_EDGE('',*,*,#471,.T.);
#607=ORIENTED_EDGE('',*,*,#468,.T.);
#608=ORIENTED_EDGE('',*,*,#470,.T.);
#609=ORIENTED_EDGE('',*,*,#447,.F.);
#610=ORIENTED_EDGE('',*,*,#473,.T.);
#611=ORIENTED_EDGE('',*,*,#430,.F.);
#612=ORIENTED_EDGE('',*,*,#473,.F.);
#613=ORIENTED_EDGE('',*,*,#462,.F.);
#614=ORIENTED_EDGE('',*,*,#474,.T.);
#615=ORIENTED_EDGE('',*,*,#445,.F.);
#616=ORIENTED_EDGE('',*,*,#474,.F.);
#617=ORIENTED_EDGE('',*,*,#461,.F.);
#618=ORIENTED_EDGE('',*,*,#475,.T.);
#619=ORIENTED_EDGE('',*,*,#444,.F.);
#620=ORIENTED_EDGE('',*,*,#475,.F.);
#621=ORIENTED_EDGE('',*,*,#460,.F.);
#622=ORIENTED_EDGE('',*,*,#476,.T.);
#623=ORIENTED_EDGE('',*,*,#443,.F.);
#624=ORIENTED_EDGE('',*,*,#476,.F.);
#625=ORIENTED_EDGE('',*,*,#459,.F.);
#626=ORIENTED_EDGE('',*,*,#477,.T.);
#627=ORIENTED_EDGE('',*,*,#442,.F.);
#628=ORIENTED_EDGE('',*,*,#477,.F.);
#629=ORIENTED_EDGE('',*,*,#458,.F.);
#630=ORIENTED_EDGE('',*,*,#478,.T.);
#631=ORIENTED_EDGE('',*,*,#441,.F.);
#632=ORIENTED_EDGE('',*,*,#478,.F.);
#633=ORIENTED_EDGE('',*,*,#439,.F.);
#634=ORIENTED_EDGE('',*,*,#479,.F.);
#635=ORIENTED_EDGE('',*,*,#456,.F.);
#636=ORIENTED_EDGE('',*,*,#480,.T.);
#637=ORIENTED_EDGE('',*,*,#440,.F.);
#638=ORIENTED_EDGE('',*,*,#480,.F.);
#639=ORIENTED_EDGE('',*,*,#455,.F.);
#640=ORIENTED_EDGE('',*,*,#481,.T.);
#641=ORIENTED_EDGE('',*,*,#437,.F.);
#642=ORIENTED_EDGE('',*,*,#481,.F.);
#643=ORIENTED_EDGE('',*,*,#454,.F.);
#644=ORIENTED_EDGE('',*,*,#482,.T.);
#645=ORIENTED_EDGE('',*,*,#438,.F.);
#646=ORIENTED_EDGE('',*,*,#482,.F.);
#647=ORIENTED_EDGE('',*,*,#457,.F.);
#648=ORIENTED_EDGE('',*,*,#479,.T.);
#649=ORIENTED_EDGE('',*,*,#407,.F.);
#650=ORIENTED_EDGE('',*,*,#427,.T.);
#651=ORIENTED_EDGE('',*,*,#416,.F.);
#652=ORIENTED_EDGE('',*,*,#413,.F.);
#653=ORIENTED_EDGE('',*,*,#423,.F.);
#654=ORIENTED_EDGE('',*,*,#428,.T.);
#655=ORIENTED_EDGE('',*,*,#408,.F.);
#656=ORIENTED_EDGE('',*,*,#405,.F.);
#657=ORIENTED_EDGE('',*,*,#483,.F.);
#658=ORIENTED_EDGE('',*,*,#436,.F.);
#659=ORIENTED_EDGE('',*,*,#484,.F.);
#660=ORIENTED_EDGE('',*,*,#449,.F.);
#661=ORIENTED_EDGE('',*,*,#484,.T.);
#662=ORIENTED_EDGE('',*,*,#435,.T.);
#663=ORIENTED_EDGE('',*,*,#485,.T.);
#664=ORIENTED_EDGE('',*,*,#450,.F.);
#665=ORIENTED_EDGE('',*,*,#485,.F.);
#666=ORIENTED_EDGE('',*,*,#434,.F.);
#667=ORIENTED_EDGE('',*,*,#486,.F.);
#668=ORIENTED_EDGE('',*,*,#451,.F.);
#669=ORIENTED_EDGE('',*,*,#433,.F.);
#670=ORIENTED_EDGE('',*,*,#487,.F.);
#671=ORIENTED_EDGE('',*,*,#452,.F.);
#672=ORIENTED_EDGE('',*,*,#486,.T.);
#673=ORIENTED_EDGE('',*,*,#432,.F.);
#674=ORIENTED_EDGE('',*,*,#488,.T.);
#675=ORIENTED_EDGE('',*,*,#453,.F.);
#676=ORIENTED_EDGE('',*,*,#487,.T.);
#677=ORIENTED_EDGE('',*,*,#431,.T.);
#678=ORIENTED_EDGE('',*,*,#483,.T.);
#679=ORIENTED_EDGE('',*,*,#448,.F.);
#680=ORIENTED_EDGE('',*,*,#488,.F.);
#681=SPHERICAL_SURFACE('',#741,0.999999999999996);
#682=SPHERICAL_SURFACE('',#745,0.999999999999999);
#683=SPHERICAL_SURFACE('',#750,0.999999999999996);
#684=SPHERICAL_SURFACE('',#757,1.);
#685=ADVANCED_FACE('',(#193),#681,.T.);
#686=ADVANCED_FACE('',(#194),#682,.T.);
#687=ADVANCED_FACE('',(#195),#175,.T.);
#688=ADVANCED_FACE('',(#196),#683,.T.);
#689=ADVANCED_FACE('',(#197),#176,.T.);
#690=ADVANCED_FACE('',(#198),#177,.T.);
#691=ADVANCED_FACE('',(#199),#684,.T.);
#692=ADVANCED_FACE('',(#200),#178,.T.);
#693=ADVANCED_FACE('',(#201),#179,.T.);
#694=ADVANCED_FACE('',(#202),#180,.T.);
#695=ADVANCED_FACE('',(#203),#181,.T.);
#696=ADVANCED_FACE('',(#204),#182,.T.);
#697=ADVANCED_FACE('',(#205),#35,.T.);
#698=ADVANCED_FACE('',(#206),#36,.T.);
#699=ADVANCED_FACE('',(#207,#15,#16,#17,#18,#19,#20,#21,#22,#23,#24),#37,
 .T.);
#700=ADVANCED_FACE('',(#208,#25,#26,#27,#28,#29,#30,#31,#32),#38,.F.);
#701=ADVANCED_FACE('',(#209),#183,.F.);
#702=ADVANCED_FACE('',(#210),#184,.T.);
#703=ADVANCED_FACE('',(#211,#33),#39,.T.);
#704=ADVANCED_FACE('',(#212),#40,.T.);
#705=ADVANCED_FACE('',(#213),#185,.F.);
#706=ADVANCED_FACE('',(#214),#186,.T.);
#707=ADVANCED_FACE('',(#215,#34),#41,.T.);
#708=ADVANCED_FACE('',(#216),#42,.T.);
#709=ADVANCED_FACE('',(#217),#187,.F.);
#710=ADVANCED_FACE('',(#218),#188,.F.);
#711=ADVANCED_FACE('',(#219),#189,.F.);
#712=ADVANCED_FACE('',(#220),#190,.F.);
#713=ADVANCED_FACE('',(#221),#191,.F.);
#714=ADVANCED_FACE('',(#222),#192,.F.);
#715=ADVANCED_FACE('',(#223),#43,.F.);
#716=ADVANCED_FACE('',(#224),#44,.F.);
#717=ADVANCED_FACE('',(#225),#45,.F.);
#718=ADVANCED_FACE('',(#226),#46,.F.);
#719=ADVANCED_FACE('',(#227),#47,.T.);
#720=ADVANCED_FACE('',(#228),#48,.T.);
#721=ADVANCED_FACE('',(#229),#49,.F.);
#722=ADVANCED_FACE('',(#230),#50,.T.);
#723=ADVANCED_FACE('',(#231),#51,.F.);
#724=ADVANCED_FACE('',(#232),#52,.F.);
#725=ADVANCED_FACE('',(#233),#53,.F.);
#726=ADVANCED_FACE('',(#234),#54,.T.);
#727=CLOSED_SHELL('',(#685,#686,#687,#688,#689,#690,#691,#692,#693,#694,
#695,#696,#697,#698,#699,#700,#701,#702,#703,#704,#705,#706,#707,#708,#709,
#710,#711,#712,#713,#714,#715,#716,#717,#718,#719,#720,#721,#722,#723,#724,
#725,#726));
#728=DERIVED_UNIT_ELEMENT(#730,1.);
#729=DERIVED_UNIT_ELEMENT(#1241,-3.);
#730=(
MASS_UNIT()
NAMED_UNIT(*)
SI_UNIT(.KILO.,.GRAM.)
);
#731=DERIVED_UNIT((#728,#729));
#732=MEASURE_REPRESENTATION_ITEM('density measure',
POSITIVE_RATIO_MEASURE(7850.),#731);
#733=PROPERTY_DEFINITION_REPRESENTATION(#738,#735);
#734=PROPERTY_DEFINITION_REPRESENTATION(#739,#736);
#735=REPRESENTATION('material name',(#737),#1238);
#736=REPRESENTATION('density',(#732),#1238);
#737=DESCRIPTIVE_REPRESENTATION_ITEM('Steel','Steel');
#738=PROPERTY_DEFINITION('material property','material name',#1248);
#739=PROPERTY_DEFINITION('material property','density of part',#1248);
#740=AXIS2_PLACEMENT_3D('',#1037,#819,#820);
#741=AXIS2_PLACEMENT_3D('',#1038,#821,#822);
#742=AXIS2_PLACEMENT_3D('',#1041,#823,#824);
#743=AXIS2_PLACEMENT_3D('',#1043,#825,#826);
#744=AXIS2_PLACEMENT_3D('',#1044,#827,#828);
#745=AXIS2_PLACEMENT_3D('',#1045,#829,#830);
#746=AXIS2_PLACEMENT_3D('',#1048,#831,#832);
#747=AXIS2_PLACEMENT_3D('',#1050,#833,#834);
#748=AXIS2_PLACEMENT_3D('',#1051,#835,#836);
#749=AXIS2_PLACEMENT_3D('',#1052,#837,#838);
#750=AXIS2_PLACEMENT_3D('',#1055,#841,#842);
#751=AXIS2_PLACEMENT_3D('',#1058,#843,#844);
#752=AXIS2_PLACEMENT_3D('',#1060,#845,#846);
#753=AXIS2_PLACEMENT_3D('',#1061,#847,#848);
#754=AXIS2_PLACEMENT_3D('',#1062,#849,#850);
#755=AXIS2_PLACEMENT_3D('',#1065,#853,#854);
#756=AXIS2_PLACEMENT_3D('',#1068,#855,#856);
#757=AXIS2_PLACEMENT_3D('',#1071,#859,#860);
#758=AXIS2_PLACEMENT_3D('',#1074,#861,#862);
#759=AXIS2_PLACEMENT_3D('',#1076,#863,#864);
#760=AXIS2_PLACEMENT_3D('',#1077,#865,#866);
#761=AXIS2_PLACEMENT_3D('',#1078,#867,#868);
#762=AXIS2_PLACEMENT_3D('',#1081,#871,#872);
#763=AXIS2_PLACEMENT_3D('',#1084,#873,#874);
#764=AXIS2_PLACEMENT_3D('',#1087,#877,#878);
#765=AXIS2_PLACEMENT_3D('',#1090,#881,#882);
#766=AXIS2_PLACEMENT_3D('',#1093,#883,#884);
#767=AXIS2_PLACEMENT_3D('',#1096,#887,#888);
#768=AXIS2_PLACEMENT_3D('',#1099,#889,#890);
#769=AXIS2_PLACEMENT_3D('',#1102,#893,#894);
#770=AXIS2_PLACEMENT_3D('',#1104,#896,#897);
#771=AXIS2_PLACEMENT_3D('',#1106,#899,#900);
#772=AXIS2_PLACEMENT_3D('',#1110,#903,#904);
#773=AXIS2_PLACEMENT_3D('',#1112,#905,#906);
#774=AXIS2_PLACEMENT_3D('',#1134,#917,#918);
#775=AXIS2_PLACEMENT_3D('',#1136,#919,#920);
#776=AXIS2_PLACEMENT_3D('',#1138,#921,#922);
#777=AXIS2_PLACEMENT_3D('',#1140,#923,#924);
#778=AXIS2_PLACEMENT_3D('',#1142,#925,#926);
#779=AXIS2_PLACEMENT_3D('',#1144,#927,#928);
#780=AXIS2_PLACEMENT_3D('',#1145,#929,#930);
#781=AXIS2_PLACEMENT_3D('',#1147,#931,#932);
#782=AXIS2_PLACEMENT_3D('',#1169,#943,#944);
#783=AXIS2_PLACEMENT_3D('',#1171,#945,#946);
#784=AXIS2_PLACEMENT_3D('',#1173,#947,#948);
#785=AXIS2_PLACEMENT_3D('',#1175,#949,#950);
#786=AXIS2_PLACEMENT_3D('',#1177,#951,#952);
#787=AXIS2_PLACEMENT_3D('',#1178,#953,#954);
#788=AXIS2_PLACEMENT_3D('',#1180,#955,#956);
#789=AXIS2_PLACEMENT_3D('',#1183,#958,#959);
#790=AXIS2_PLACEMENT_3D('',#1184,#960,#961);
#791=AXIS2_PLACEMENT_3D('',#1186,#962,#963);
#792=AXIS2_PLACEMENT_3D('',#1188,#965,#966);
#793=AXIS2_PLACEMENT_3D('',#1189,#967,#968);
#794=AXIS2_PLACEMENT_3D('',#1190,#969,#970);
#795=AXIS2_PLACEMENT_3D('',#1192,#971,#972);
#796=AXIS2_PLACEMENT_3D('',#1195,#974,#975);
#797=AXIS2_PLACEMENT_3D('',#1196,#976,#977);
#798=AXIS2_PLACEMENT_3D('',#1198,#978,#979);
#799=AXIS2_PLACEMENT_3D('',#1200,#981,#982);
#800=AXIS2_PLACEMENT_3D('',#1201,#983,#984);
#801=AXIS2_PLACEMENT_3D('',#1202,#985,#986);
#802=AXIS2_PLACEMENT_3D('',#1204,#988,#989);
#803=AXIS2_PLACEMENT_3D('',#1206,#991,#992);
#804=AXIS2_PLACEMENT_3D('',#1208,#994,#995);
#805=AXIS2_PLACEMENT_3D('',#1210,#997,#998);
#806=AXIS2_PLACEMENT_3D('',#1212,#1000,#1001);
#807=AXIS2_PLACEMENT_3D('',#1214,#1003,#1004);
#808=AXIS2_PLACEMENT_3D('',#1217,#1007,#1008);
#809=AXIS2_PLACEMENT_3D('',#1219,#1010,#1011);
#810=AXIS2_PLACEMENT_3D('',#1221,#1013,#1014);
#811=AXIS2_PLACEMENT_3D('',#1222,#1015,#1016);
#812=AXIS2_PLACEMENT_3D('',#1223,#1017,#1018);
#813=AXIS2_PLACEMENT_3D('',#1224,#1019,#1020);
#814=AXIS2_PLACEMENT_3D('',#1227,#1023,#1024);
#815=AXIS2_PLACEMENT_3D('',#1229,#1026,#1027);
#816=AXIS2_PLACEMENT_3D('',#1231,#1029,#1030);
#817=AXIS2_PLACEMENT_3D('',#1233,#1032,#1033);
#818=AXIS2_PLACEMENT_3D('',#1235,#1035,#1036);
#819=DIRECTION('axis',(0.,0.,1.));
#820=DIRECTION('refdir',(1.,0.,0.));
#821=DIRECTION('center_axis',(-0.408248290463861,-0.816496580927721,0.408248290463875));
#822=DIRECTION('ref_axis',(-0.577350269189612,0.577350269189633,0.577350269189633));
#823=DIRECTION('center_axis',(0.,1.,0.));
#824=DIRECTION('ref_axis',(0.,0.,1.));
#825=DIRECTION('center_axis',(-1.,0.,1.77635683940025E-14));
#826=DIRECTION('ref_axis',(0.,1.,0.));
#827=DIRECTION('center_axis',(0.,-2.22044604925032E-15,1.));
#828=DIRECTION('ref_axis',(-1.,0.,0.));
#829=DIRECTION('center_axis',(0.408248290463864,0.40824829046386,-0.816496580927727));
#830=DIRECTION('ref_axis',(0.577350269189631,0.577350269189623,0.577350269189623));
#831=DIRECTION('center_axis',(2.22044604925031E-15,0.,1.));
#832=DIRECTION('ref_axis',(0.,1.,0.));
#833=DIRECTION('center_axis',(1.,0.,0.));
#834=DIRECTION('ref_axis',(0.,0.,1.));
#835=DIRECTION('center_axis',(0.,1.,0.));
#836=DIRECTION('ref_axis',(1.,0.,0.));
#837=DIRECTION('center_axis',(-1.,0.,0.));
#838=DIRECTION('ref_axis',(0.,0.707106781186548,0.707106781186548));
#839=DIRECTION('',(1.,0.,0.));
#840=DIRECTION('',(-1.,0.,0.));
#841=DIRECTION('center_axis',(-0.816496580927726,0.408248290463863,-0.408248290463863));
#842=DIRECTION('ref_axis',(-0.577350269189624,-0.577350269189628,0.577350269189626));
#843=DIRECTION('center_axis',(-1.,0.,0.));
#844=DIRECTION('ref_axis',(0.,0.,1.));
#845=DIRECTION('center_axis',(0.,-1.,0.));
#846=DIRECTION('ref_axis',(-1.,0.,0.));
#847=DIRECTION('center_axis',(2.22044604925032E-15,0.,1.));
#848=DIRECTION('ref_axis',(0.,-1.,0.));
#849=DIRECTION('center_axis',(0.,-1.,2.22044604925031E-16));
#850=DIRECTION('ref_axis',(-0.70710678118654,0.,0.707106781186555));
#851=DIRECTION('',(0.,1.,-2.22044604925031E-16));
#852=DIRECTION('',(0.,-1.,2.22044604925031E-16));
#853=DIRECTION('center_axis',(0.,0.,-1.));
#854=DIRECTION('ref_axis',(-0.707106781186538,-0.707106781186557,0.));
#855=DIRECTION('center_axis',(0.,2.22044604925031E-16,1.));
#856=DIRECTION('ref_axis',(-0.707106781186538,-0.707106781186557,0.));
#857=DIRECTION('',(0.,0.,1.));
#858=DIRECTION('',(0.,0.,-1.));
#859=DIRECTION('center_axis',(-0.408248290463861,-0.816496580927726,-0.408248290463865));
#860=DIRECTION('ref_axis',(0.577350269189625,-0.577350269189626,0.577350269189627));
#861=DIRECTION('center_axis',(0.,-1.,0.));
#862=DIRECTION('ref_axis',(0.,0.,1.));
#863=DIRECTION('center_axis',(1.,0.,0.));
#864=DIRECTION('ref_axis',(0.,-1.,0.));
#865=DIRECTION('center_axis',(0.,-2.22044604925031E-15,1.));
#866=DIRECTION('ref_axis',(1.,0.,0.));
#867=DIRECTION('center_axis',(1.,0.,0.));
#868=DIRECTION('ref_axis',(0.,-0.707106781186548,0.707106781186548));
#869=DIRECTION('',(-1.,0.,0.));
#870=DIRECTION('',(1.,0.,0.));
#871=DIRECTION('center_axis',(0.,0.,-1.));
#872=DIRECTION('ref_axis',(0.707106781186545,-0.70710678118655,0.));
#873=DIRECTION('center_axis',(0.,2.22044604925031E-16,1.));
#874=DIRECTION('ref_axis',(0.707106781186545,-0.70710678118655,0.));
#875=DIRECTION('',(0.,0.,1.));
#876=DIRECTION('',(0.,0.,-1.));
#877=DIRECTION('center_axis',(0.,-1.,2.22044604925031E-16));
#878=DIRECTION('ref_axis',(0.707106781186547,0.,0.707106781186548));
#879=DIRECTION('',(0.,1.,-2.22044604925031E-16));
#880=DIRECTION('',(0.,-1.,2.22044604925031E-16));
#881=DIRECTION('center_axis',(0.,0.,1.));
#882=DIRECTION('ref_axis',(0.70710678118655,0.707106781186545,0.));
#883=DIRECTION('center_axis',(0.,2.22044604925031E-16,1.));
#884=DIRECTION('ref_axis',(0.70710678118655,0.707106781186545,0.));
#885=DIRECTION('',(0.,0.,1.));
#886=DIRECTION('',(0.,0.,-1.));
#887=DIRECTION('center_axis',(0.,0.,-1.));
#888=DIRECTION('ref_axis',(-0.707106781186541,0.707106781186554,0.));
#889=DIRECTION('center_axis',(0.,2.22044604925031E-16,1.));
#890=DIRECTION('ref_axis',(-0.707106781186541,0.707106781186554,0.));
#891=DIRECTION('',(0.,0.,1.));
#892=DIRECTION('',(0.,0.,-1.));
#893=DIRECTION('center_axis',(0.,1.,0.));
#894=DIRECTION('ref_axis',(0.,0.,1.));
#895=DIRECTION('',(1.,0.,0.));
#896=DIRECTION('center_axis',(1.,0.,0.));
#897=DIRECTION('ref_axis',(0.,0.,-1.));
#898=DIRECTION('',(0.,1.,0.));
#899=DIRECTION('center_axis',(0.,-2.22044604925031E-16,-1.));
#900=DIRECTION('ref_axis',(-1.,-1.22464679914735E-16,2.71926214689378E-32));
#901=DIRECTION('',(1.,0.,0.));
#902=DIRECTION('',(0.,-1.,0.));
#903=DIRECTION('center_axis',(0.,2.22044604925031E-16,1.));
#904=DIRECTION('ref_axis',(1.,0.,0.));
#905=DIRECTION('center_axis',(0.,2.22044604925031E-16,1.));
#906=DIRECTION('ref_axis',(-1.,0.,0.));
#907=DIRECTION('',(0.,1.,-2.22044604925031E-16));
#908=DIRECTION('',(1.,0.,0.));
#909=DIRECTION('',(0.,1.,-2.22044604925031E-16));
#910=DIRECTION('',(-1.,0.,0.));
#911=DIRECTION('',(0.,1.,-2.22044604925031E-16));
#912=DIRECTION('',(-1.,0.,0.));
#913=DIRECTION('',(0.,1.,-2.22044604925031E-16));
#914=DIRECTION('',(-1.,0.,0.));
#915=DIRECTION('',(0.,-1.,2.22044604925031E-16));
#916=DIRECTION('',(1.,0.,0.));
#917=DIRECTION('center_axis',(0.,2.22044604925031E-16,1.));
#918=DIRECTION('ref_axis',(-1.,0.,0.));
#919=DIRECTION('center_axis',(0.,2.22044604925031E-16,1.));
#920=DIRECTION('ref_axis',(-1.,0.,0.));
#921=DIRECTION('center_axis',(0.,2.22044604925031E-16,1.));
#922=DIRECTION('ref_axis',(-1.,0.,0.));
#923=DIRECTION('center_axis',(0.,2.22044604925031E-16,1.));
#924=DIRECTION('ref_axis',(-1.,0.,0.));
#925=DIRECTION('center_axis',(0.,2.22044604925031E-16,1.));
#926=DIRECTION('ref_axis',(-1.,0.,0.));
#927=DIRECTION('center_axis',(0.,2.22044604925031E-16,1.));
#928=DIRECTION('ref_axis',(1.,0.,0.));
#929=DIRECTION('center_axis',(0.,-2.22044604925031E-16,-1.));
#930=DIRECTION('ref_axis',(-1.,-1.22464679914735E-16,2.71926214689378E-32));
#931=DIRECTION('center_axis',(0.,-2.22044604925031E-16,-1.));
#932=DIRECTION('ref_axis',(-1.,0.,0.));
#933=DIRECTION('',(0.,1.,-2.22044604925031E-16));
#934=DIRECTION('',(1.,0.,0.));
#935=DIRECTION('',(0.,1.,-2.22044604925031E-16));
#936=DIRECTION('',(1.,0.,0.));
#937=DIRECTION('',(0.,-1.,2.22044604925031E-16));
#938=DIRECTION('',(-1.,0.,0.));
#939=DIRECTION('',(0.,-1.,2.22044604925031E-16));
#940=DIRECTION('',(-1.,0.,0.));
#941=DIRECTION('',(0.,1.,-2.22044604925031E-16));
#942=DIRECTION('',(1.,0.,0.));
#943=DIRECTION('center_axis',(0.,-2.22044604925031E-16,-1.));
#944=DIRECTION('ref_axis',(-1.,0.,0.));
#945=DIRECTION('center_axis',(0.,-2.22044604925031E-16,-1.));
#946=DIRECTION('ref_axis',(-1.,0.,0.));
#947=DIRECTION('center_axis',(0.,-2.22044604925031E-16,-1.));
#948=DIRECTION('ref_axis',(-1.,0.,0.));
#949=DIRECTION('center_axis',(0.,-2.22044604925031E-16,-1.));
#950=DIRECTION('ref_axis',(-1.,0.,0.));
#951=DIRECTION('center_axis',(0.,-2.22044604925031E-16,-1.));
#952=DIRECTION('ref_axis',(-1.,0.,0.));
#953=DIRECTION('center_axis',(0.,0.,-1.));
#954=DIRECTION('ref_axis',(1.,0.,0.));
#955=DIRECTION('center_axis',(0.,0.,1.));
#956=DIRECTION('ref_axis',(1.,0.,0.));
#957=DIRECTION('',(0.,0.,1.));
#958=DIRECTION('center_axis',(0.,-2.22044604925031E-16,-1.));
#959=DIRECTION('ref_axis',(1.,0.,0.));
#960=DIRECTION('center_axis',(0.,0.,-1.));
#961=DIRECTION('ref_axis',(1.,0.,0.));
#962=DIRECTION('center_axis',(0.,0.,-1.));
#963=DIRECTION('ref_axis',(1.,0.,0.));
#964=DIRECTION('',(0.,0.,1.));
#965=DIRECTION('center_axis',(0.,0.,-1.));
#966=DIRECTION('ref_axis',(1.,0.,0.));
#967=DIRECTION('center_axis',(0.,-2.22044604925031E-16,-1.));
#968=DIRECTION('ref_axis',(-1.,-1.22464679914735E-16,2.71926214689378E-32));
#969=DIRECTION('center_axis',(0.,0.,-1.));
#970=DIRECTION('ref_axis',(1.,0.,0.));
#971=DIRECTION('center_axis',(0.,0.,1.));
#972=DIRECTION('ref_axis',(1.,0.,0.));
#973=DIRECTION('',(0.,0.,1.));
#974=DIRECTION('center_axis',(0.,-2.22044604925031E-16,-1.));
#975=DIRECTION('ref_axis',(1.,0.,0.));
#976=DIRECTION('center_axis',(0.,0.,-1.));
#977=DIRECTION('ref_axis',(1.,0.,0.));
#978=DIRECTION('center_axis',(0.,0.,-1.));
#979=DIRECTION('ref_axis',(1.,0.,0.));
#980=DIRECTION('',(0.,0.,1.));
#981=DIRECTION('center_axis',(0.,0.,-1.));
#982=DIRECTION('ref_axis',(1.,0.,0.));
#983=DIRECTION('center_axis',(0.,-2.22044604925031E-16,-1.));
#984=DIRECTION('ref_axis',(-1.,-1.22464679914735E-16,2.71926214689378E-32));
#985=DIRECTION('center_axis',(0.,0.,-1.));
#986=DIRECTION('ref_axis',(-1.,0.,0.));
#987=DIRECTION('',(0.,0.,-1.));
#988=DIRECTION('center_axis',(0.,0.,-1.));
#989=DIRECTION('ref_axis',(-1.,0.,0.));
#990=DIRECTION('',(0.,0.,-1.));
#991=DIRECTION('center_axis',(0.,0.,-1.));
#992=DIRECTION('ref_axis',(-1.,0.,0.));
#993=DIRECTION('',(0.,0.,-1.));
#994=DIRECTION('center_axis',(0.,0.,-1.));
#995=DIRECTION('ref_axis',(-1.,0.,0.));
#996=DIRECTION('',(0.,0.,-1.));
#997=DIRECTION('center_axis',(0.,0.,-1.));
#998=DIRECTION('ref_axis',(-1.,0.,0.));
#999=DIRECTION('',(0.,0.,-1.));
#1000=DIRECTION('center_axis',(0.,0.,-1.));
#1001=DIRECTION('ref_axis',(-1.,0.,0.));
#1002=DIRECTION('',(0.,0.,-1.));
#1003=DIRECTION('center_axis',(-1.,0.,0.));
#1004=DIRECTION('ref_axis',(0.,1.,0.));
#1005=DIRECTION('',(0.,0.,-1.));
#1006=DIRECTION('',(0.,0.,-1.));
#1007=DIRECTION('center_axis',(0.,-1.,0.));
#1008=DIRECTION('ref_axis',(-1.,0.,0.));
#1009=DIRECTION('',(0.,0.,-1.));
#1010=DIRECTION('center_axis',(1.,0.,0.));
#1011=DIRECTION('ref_axis',(0.,-1.,0.));
#1012=DIRECTION('',(0.,0.,-1.));
#1013=DIRECTION('center_axis',(0.,1.,0.));
#1014=DIRECTION('ref_axis',(1.,0.,0.));
#1015=DIRECTION('center_axis',(0.,-1.,0.));
#1016=DIRECTION('ref_axis',(0.,0.,-1.));
#1017=DIRECTION('center_axis',(-1.,0.,0.));
#1018=DIRECTION('ref_axis',(0.,0.,1.));
#1019=DIRECTION('center_axis',(0.,1.,0.));
#1020=DIRECTION('ref_axis',(0.,0.,1.));
#1021=DIRECTION('',(0.,0.,1.));
#1022=DIRECTION('',(0.,0.,-1.));
#1023=DIRECTION('center_axis',(1.,0.,0.));
#1024=DIRECTION('ref_axis',(0.,0.,-1.));
#1025=DIRECTION('',(0.,0.,1.));
#1026=DIRECTION('center_axis',(0.,1.,0.));
#1027=DIRECTION('ref_axis',(0.,0.,1.));
#1028=DIRECTION('',(0.,0.,-1.));
#1029=DIRECTION('center_axis',(1.,0.,0.));
#1030=DIRECTION('ref_axis',(0.,0.,-1.));
#1031=DIRECTION('',(0.,0.,-1.));
#1032=DIRECTION('center_axis',(0.,-1.,0.));
#1033=DIRECTION('ref_axis',(0.,0.,-1.));
#1034=DIRECTION('',(0.,0.,1.));
#1035=DIRECTION('center_axis',(1.,0.,0.));
#1036=DIRECTION('ref_axis',(0.,0.,-1.));
#1037=CARTESIAN_POINT('',(0.,0.,0.));
#1038=CARTESIAN_POINT('Origin',(-96.39,50.8611183223724,11.5698816776275));
#1039=CARTESIAN_POINT('',(-96.39,50.8611183223724,12.5698816776275));
#1040=CARTESIAN_POINT('',(-97.39,50.8611183223724,11.5698816776275));
#1041=CARTESIAN_POINT('Origin',(-96.39,50.8611183223724,11.5698816776275));
#1042=CARTESIAN_POINT('',(-96.39,51.8611183223724,11.5698816776275));
#1043=CARTESIAN_POINT('Origin',(-96.39,50.8611183223724,11.5698816776275));
#1044=CARTESIAN_POINT('Origin',(-96.39,50.8611183223724,11.5698816776275));
#1045=CARTESIAN_POINT('Origin',(7.954,50.8611183223724,11.5698816776275));
#1046=CARTESIAN_POINT('',(7.954,51.8611183223724,11.5698816776275));
#1047=CARTESIAN_POINT('',(8.954,50.8611183223724,11.5698816776275));
#1048=CARTESIAN_POINT('Origin',(7.954,50.8611183223724,11.5698816776275));
#1049=CARTESIAN_POINT('',(7.954,50.8611183223724,12.5698816776275));
#1050=CARTESIAN_POINT('Origin',(7.954,50.8611183223724,11.5698816776275));
#1051=CARTESIAN_POINT('Origin',(7.954,50.8611183223724,11.5698816776275));
#1052=CARTESIAN_POINT('Origin',(-50.7125,50.8611183223724,11.5698816776275));
#1053=CARTESIAN_POINT('',(-50.7125,50.8611183223724,12.5698816776275));
#1054=CARTESIAN_POINT('',(-50.7125,51.8611183223724,11.5698816776275));
#1055=CARTESIAN_POINT('Origin',(-96.39,-24.2888816776276,11.5698816776276));
#1056=CARTESIAN_POINT('',(-96.39,-24.2888816776276,12.5698816776276));
#1057=CARTESIAN_POINT('',(-96.39,-25.2888816776276,11.5698816776276));
#1058=CARTESIAN_POINT('Origin',(-96.39,-24.2888816776276,11.5698816776276));
#1059=CARTESIAN_POINT('',(-97.39,-24.2888816776276,11.5698816776276));
#1060=CARTESIAN_POINT('Origin',(-96.39,-24.2888816776276,11.5698816776276));
#1061=CARTESIAN_POINT('Origin',(-96.39,-24.2888816776276,11.5698816776276));
#1062=CARTESIAN_POINT('Origin',(-96.39,-5.94488167762758,11.5698816776276));
#1063=CARTESIAN_POINT('',(-96.39,-5.94488167762758,12.5698816776276));
#1064=CARTESIAN_POINT('',(-97.39,-5.94488167762758,11.5698816776276));
#1065=CARTESIAN_POINT('Origin',(-96.39,-24.2888816776276,12.5698816776276));
#1066=CARTESIAN_POINT('',(-97.39,-24.2888816776276,9.56988167762755));
#1067=CARTESIAN_POINT('',(-96.39,-25.2888816776276,9.56988167762756));
#1068=CARTESIAN_POINT('Origin',(-96.39,-24.2888816776276,9.56988167762756));
#1069=CARTESIAN_POINT('',(-96.39,-25.2888816776276,12.5698816776276));
#1070=CARTESIAN_POINT('',(-97.39,-24.2888816776276,12.5698816776276));
#1071=CARTESIAN_POINT('Origin',(7.954,-24.2888816776276,11.5698816776276));
#1072=CARTESIAN_POINT('',(7.954,-24.2888816776276,12.5698816776276));
#1073=CARTESIAN_POINT('',(8.954,-24.2888816776276,11.5698816776276));
#1074=CARTESIAN_POINT('Origin',(7.954,-24.2888816776276,11.5698816776276));
#1075=CARTESIAN_POINT('',(7.954,-25.2888816776276,11.5698816776276));
#1076=CARTESIAN_POINT('Origin',(7.954,-24.2888816776276,11.5698816776276));
#1077=CARTESIAN_POINT('Origin',(7.954,-24.2888816776276,11.5698816776276));
#1078=CARTESIAN_POINT('Origin',(-22.1375,-24.2888816776276,11.5698816776276));
#1079=CARTESIAN_POINT('',(-22.1375,-24.2888816776276,12.5698816776276));
#1080=CARTESIAN_POINT('',(-22.1375,-25.2888816776276,11.5698816776276));
#1081=CARTESIAN_POINT('Origin',(7.954,-24.2888816776276,11.8198816776276));
#1082=CARTESIAN_POINT('',(7.95400000000001,-25.2888816776276,9.56988167762756));
#1083=CARTESIAN_POINT('',(8.954,-24.2888816776276,9.56988167762756));
#1084=CARTESIAN_POINT('Origin',(7.954,-24.2888816776276,9.56988167762756));
#1085=CARTESIAN_POINT('',(8.954,-24.2888816776276,11.8198816776276));
#1086=CARTESIAN_POINT('',(7.954,-25.2888816776276,11.8198816776276));
#1087=CARTESIAN_POINT('Origin',(7.954,3.58011832237243,11.5698816776276));
#1088=CARTESIAN_POINT('',(8.954,3.58011832237243,11.5698816776276));
#1089=CARTESIAN_POINT('',(7.954,3.58011832237243,12.5698816776276));
#1090=CARTESIAN_POINT('Origin',(7.954,50.8611183223724,11.8198816776276));
#1091=CARTESIAN_POINT('',(8.954,50.8611183223724,9.56988167762756));
#1092=CARTESIAN_POINT('',(7.954,51.8611183223724,9.56988167762755));
#1093=CARTESIAN_POINT('Origin',(7.954,50.8611183223724,9.56988167762756));
#1094=CARTESIAN_POINT('',(7.954,51.8611183223724,11.8198816776276));
#1095=CARTESIAN_POINT('',(8.954,50.8611183223724,11.8198816776276));
#1096=CARTESIAN_POINT('Origin',(-96.39,50.8611183223724,12.5698816776276));
#1097=CARTESIAN_POINT('',(-96.39,51.8611183223724,9.56988167762755));
#1098=CARTESIAN_POINT('',(-97.39,50.8611183223724,9.56988167762755));
#1099=CARTESIAN_POINT('Origin',(-96.39,50.8611183223724,9.56988167762756));
#1100=CARTESIAN_POINT('',(-97.39,50.8611183223724,12.5698816776276));
#1101=CARTESIAN_POINT('',(-96.39,51.8611183223724,12.5698816776276));
#1102=CARTESIAN_POINT('Origin',(-65.,51.8611183223724,12.5698816776276));
#1103=CARTESIAN_POINT('',(-2.85,51.8611183223724,9.56988167762755));
#1104=CARTESIAN_POINT('Origin',(8.954,3.58011832237244,11.0698816776276));
#1105=CARTESIAN_POINT('',(8.954,-15.4698816776276,9.56988167762756));
#1106=CARTESIAN_POINT('Origin',(-36.425,3.58011832237244,9.56988167762756));
#1107=CARTESIAN_POINT('',(-67.,-25.2888816776276,9.56988167762756));
#1108=CARTESIAN_POINT('',(-97.39,22.6301183223724,9.56988167762755));
#1109=CARTESIAN_POINT('',(-4.823,41.9221183223724,9.56988167762756));
#1110=CARTESIAN_POINT('Origin',(-0.847999999999995,41.9221183223724,9.56988167762756));
#1111=CARTESIAN_POINT('',(-19.7275350803022,30.8769656470373,9.56988167762756));
#1112=CARTESIAN_POINT('Origin',(-21.7275350803022,30.8769656470373,9.56988167762756));
#1113=CARTESIAN_POINT('',(-63.6285533905933,-15.0984350682208,9.56988167762757));
#1114=CARTESIAN_POINT('',(-63.6285533905933,4.70867171296569,9.56988167762756));
#1115=CARTESIAN_POINT('',(-63.6285533905933,-4.7591583729242,9.56988167762756));
#1116=CARTESIAN_POINT('',(-5.97144660940673,-15.0984350682208,9.56988167762757));
#1117=CARTESIAN_POINT('',(-21.3232233047034,-15.0984350682208,9.56988167762757));
#1118=CARTESIAN_POINT('',(-5.97144660940673,23.5086717129657,9.56988167762756));
#1119=CARTESIAN_POINT('',(-5.97144660940673,13.4193950176691,9.56988167762756));
#1120=CARTESIAN_POINT('',(-44.5785533905933,23.5086717129657,9.56988167762756));
#1121=CARTESIAN_POINT('',(-40.0017766952966,23.5086717129657,9.56988167762756));
#1122=CARTESIAN_POINT('',(-44.5785533905933,4.7086717129657,9.56988167762756));
#1123=CARTESIAN_POINT('',(-44.5785533905933,12.9193950176691,9.56988167762756));
#1124=CARTESIAN_POINT('',(-49.5267766952966,4.7086717129657,9.56988167762756));
#1125=CARTESIAN_POINT('',(-21.0000003129244,37.000000551343,9.56988167762755));
#1126=CARTESIAN_POINT('',(-21.0000003129244,44.5000006631017,9.56988167762755));
#1127=CARTESIAN_POINT('',(-21.0000003129244,24.0400594927371,9.56988167762756));
#1128=CARTESIAN_POINT('',(-45.5000006780028,44.5000006631017,9.56988167762755));
#1129=CARTESIAN_POINT('',(-40.9625003390014,44.5000006631017,9.56988167762755));
#1130=CARTESIAN_POINT('',(-45.5000006780028,37.000000551343,9.56988167762755));
#1131=CARTESIAN_POINT('',(-45.5000006780028,20.2900594368577,9.56988167762756));
#1132=CARTESIAN_POINT('',(-28.7125001564622,37.000000551343,9.56988167762755));
#1133=CARTESIAN_POINT('',(-53.319310454648,30.8769656470373,9.56988167762756));
#1134=CARTESIAN_POINT('Origin',(-55.319310454648,30.8769656470373,9.56988167762756));
#1135=CARTESIAN_POINT('',(-42.0893876857241,30.8769656470373,9.56988167762756));
#1136=CARTESIAN_POINT('Origin',(-44.0893876857241,30.8769656470373,9.56988167762756));
#1137=CARTESIAN_POINT('',(-8.566119815274,30.8769656470373,9.56988167762756));
#1138=CARTESIAN_POINT('Origin',(-10.566119815274,30.8769656470373,9.56988167762756));
#1139=CARTESIAN_POINT('',(-51.7501907627495,13.1790917510267,9.56988167762756));
#1140=CARTESIAN_POINT('Origin',(-53.7501907627495,13.1790917510267,9.56988167762756));
#1141=CARTESIAN_POINT('',(-30.9173508930787,30.8769656470373,9.56988167762756));
#1142=CARTESIAN_POINT('Origin',(-32.9173508930787,30.8769656470373,9.56988167762756));
#1143=CARTESIAN_POINT('',(-91.923,-15.4878816776276,9.56988167762756));
#1144=CARTESIAN_POINT('Origin',(-87.948,-15.4878816776276,9.56988167762756));
#1145=CARTESIAN_POINT('Origin',(-36.425,3.58011832237243,12.5698816776276));
#1146=CARTESIAN_POINT('',(-19.7275350803022,30.8769656470373,12.5698816776276));
#1147=CARTESIAN_POINT('Origin',(-21.7275350803022,30.8769656470373,12.5698816776276));
#1148=CARTESIAN_POINT('',(-63.6285533905933,-15.0984350682208,12.5698816776276));
#1149=CARTESIAN_POINT('',(-63.6285533905933,4.70867171296569,12.5698816776276));
#1150=CARTESIAN_POINT('',(-63.6285533905933,3.39439501766906,12.5698816776276));
#1151=CARTESIAN_POINT('',(-44.5785533905933,4.7086717129657,12.5698816776276));
#1152=CARTESIAN_POINT('',(-49.5267766952966,4.70867171296569,12.5698816776276));
#1153=CARTESIAN_POINT('',(-44.5785533905933,23.5086717129657,12.5698816776276));
#1154=CARTESIAN_POINT('',(-44.5785533905933,13.4193950176691,12.5698816776276));
#1155=CARTESIAN_POINT('',(-5.97144660940673,23.5086717129657,12.5698816776276));
#1156=CARTESIAN_POINT('',(-40.0017766952966,23.5086717129657,12.5698816776276));
#1157=CARTESIAN_POINT('',(-5.97144660940673,-15.0984350682208,12.5698816776276));
#1158=CARTESIAN_POINT('',(-5.97144660940673,13.4193950176691,12.5698816776276));
#1159=CARTESIAN_POINT('',(-23.3232233047034,-15.0984350682208,12.5698816776276));
#1160=CARTESIAN_POINT('',(-21.0000003129244,44.5000006631017,12.5698816776276));
#1161=CARTESIAN_POINT('',(-21.0000003129244,37.000000551343,12.5698816776276));
#1162=CARTESIAN_POINT('',(-21.0000003129244,24.0400594927371,12.5698816776276));
#1163=CARTESIAN_POINT('',(-45.5000006780028,37.000000551343,12.5698816776276));
#1164=CARTESIAN_POINT('',(-28.7125001564622,37.000000551343,12.5698816776276));
#1165=CARTESIAN_POINT('',(-45.5000006780028,44.5000006631017,12.5698816776276));
#1166=CARTESIAN_POINT('',(-45.5000006780028,20.2900594368577,12.5698816776276));
#1167=CARTESIAN_POINT('',(-40.9625003390014,44.5000006631017,12.5698816776275));
#1168=CARTESIAN_POINT('',(-53.319310454648,30.8769656470373,12.5698816776276));
#1169=CARTESIAN_POINT('Origin',(-55.319310454648,30.8769656470373,12.5698816776276));
#1170=CARTESIAN_POINT('',(-42.0893876857241,30.8769656470373,12.5698816776276));
#1171=CARTESIAN_POINT('Origin',(-44.0893876857241,30.8769656470373,12.5698816776276));
#1172=CARTESIAN_POINT('',(-8.566119815274,30.8769656470373,12.5698816776276));
#1173=CARTESIAN_POINT('Origin',(-10.566119815274,30.8769656470373,12.5698816776276));
#1174=CARTESIAN_POINT('',(-51.7501907627495,13.1790917510267,12.5698816776276));
#1175=CARTESIAN_POINT('Origin',(-53.7501907627495,13.1790917510267,12.5698816776276));
#1176=CARTESIAN_POINT('',(-30.9173508930787,30.8769656470373,12.5698816776276));
#1177=CARTESIAN_POINT('Origin',(-32.9173508930787,30.8769656470373,12.5698816776276));
#1178=CARTESIAN_POINT('Origin',(-0.847999999999995,41.9221183223724,9.56988167762756));
#1179=CARTESIAN_POINT('',(-2.82299999999999,41.9221183223724,3.56988167762756));
#1180=CARTESIAN_POINT('Origin',(-0.847999999999995,41.9221183223724,3.56988167762756));
#1181=CARTESIAN_POINT('',(-2.82299999999999,41.9221183223724,9.56988167762756));
#1182=CARTESIAN_POINT('',(-2.82299999999999,41.9221183223724,9.56988167762756));
#1183=CARTESIAN_POINT('Origin',(-0.847999999999995,41.9221183223724,9.56988167762756));
#1184=CARTESIAN_POINT('Origin',(-0.847999999999995,41.9221183223724,9.56988167762756));
#1185=CARTESIAN_POINT('',(-4.823,41.9221183223724,3.56988167762756));
#1186=CARTESIAN_POINT('Origin',(-0.847999999999995,41.9221183223724,3.56988167762756));
#1187=CARTESIAN_POINT('',(-4.823,41.9221183223724,9.56988167762756));
#1188=CARTESIAN_POINT('Origin',(-0.847999999999995,41.9221183223724,3.56988167762756));
#1189=CARTESIAN_POINT('Origin',(-36.425,3.58011832237244,9.56988167762756));
#1190=CARTESIAN_POINT('Origin',(-87.948,-15.4878816776276,9.56988167762756));
#1191=CARTESIAN_POINT('',(-89.923,-15.4878816776276,3.56988167762756));
#1192=CARTESIAN_POINT('Origin',(-87.948,-15.4878816776276,3.56988167762756));
#1193=CARTESIAN_POINT('',(-89.923,-15.4878816776276,9.56988167762756));
#1194=CARTESIAN_POINT('',(-89.923,-15.4878816776276,9.56988167762756));
#1195=CARTESIAN_POINT('Origin',(-87.948,-15.4878816776276,9.56988167762756));
#1196=CARTESIAN_POINT('Origin',(-87.948,-15.4878816776276,9.56988167762756));
#1197=CARTESIAN_POINT('',(-91.923,-15.4878816776276,3.56988167762756));
#1198=CARTESIAN_POINT('Origin',(-87.948,-15.4878816776276,3.56988167762756));
#1199=CARTESIAN_POINT('',(-91.923,-15.4878816776276,9.56988167762756));
#1200=CARTESIAN_POINT('Origin',(-87.948,-15.4878816776276,3.56988167762756));
#1201=CARTESIAN_POINT('Origin',(-36.425,3.58011832237244,9.56988167762756));
#1202=CARTESIAN_POINT('Origin',(-21.7275350803022,30.8769656470373,12.5698816776276));
#1203=CARTESIAN_POINT('',(-19.7275350803022,30.8769656470373,12.5698816776276));
#1204=CARTESIAN_POINT('Origin',(-32.9173508930787,30.8769656470373,12.5698816776276));
#1205=CARTESIAN_POINT('',(-30.9173508930787,30.8769656470373,12.5698816776276));
#1206=CARTESIAN_POINT('Origin',(-53.7501907627495,13.1790917510267,12.5698816776276));
#1207=CARTESIAN_POINT('',(-51.7501907627495,13.1790917510267,12.5698816776276));
#1208=CARTESIAN_POINT('Origin',(-10.566119815274,30.8769656470373,12.5698816776276));
#1209=CARTESIAN_POINT('',(-8.566119815274,30.8769656470373,12.5698816776276));
#1210=CARTESIAN_POINT('Origin',(-44.0893876857241,30.8769656470373,12.5698816776276));
#1211=CARTESIAN_POINT('',(-42.0893876857241,30.8769656470373,12.5698816776276));
#1212=CARTESIAN_POINT('Origin',(-55.319310454648,30.8769656470373,12.5698816776276));
#1213=CARTESIAN_POINT('',(-53.319310454648,30.8769656470373,12.5698816776276));
#1214=CARTESIAN_POINT('Origin',(-45.5000006780028,37.000000551343,12.5698816776276));
#1215=CARTESIAN_POINT('',(-45.5000006780028,44.5000006631017,12.5698816776276));
#1216=CARTESIAN_POINT('',(-45.5000006780028,37.000000551343,12.5698816776276));
#1217=CARTESIAN_POINT('Origin',(-21.0000003129244,37.000000551343,12.5698816776276));
#1218=CARTESIAN_POINT('',(-21.0000003129244,37.000000551343,12.5698816776276));
#1219=CARTESIAN_POINT('Origin',(-21.0000003129244,44.5000006631017,12.5698816776276));
#1220=CARTESIAN_POINT('',(-21.0000003129244,44.5000006631017,12.5698816776276));
#1221=CARTESIAN_POINT('Origin',(-45.5000006780028,44.5000006631017,12.5698816776276));
#1222=CARTESIAN_POINT('Origin',(-7.85000000000001,-25.2888816776276,12.5698816776276));
#1223=CARTESIAN_POINT('Origin',(-97.39,-15.4698816776276,12.5698816776276));
#1224=CARTESIAN_POINT('Origin',(-62.6285533905933,4.70867171296569,12.5698816776276));
#1225=CARTESIAN_POINT('',(-63.6285533905933,4.7086717129657,12.5698816776276));
#1226=CARTESIAN_POINT('',(-44.5785533905933,4.7086717129657,12.5698816776276));
#1227=CARTESIAN_POINT('Origin',(-44.5785533905933,1.20867171296569,12.5698816776276));
#1228=CARTESIAN_POINT('',(-44.5785533905933,23.5086717129657,12.5698816776276));
#1229=CARTESIAN_POINT('Origin',(-43.5785533905933,23.5086717129657,12.5698816776276));
#1230=CARTESIAN_POINT('',(-5.97144660940673,23.5086717129657,12.5698816776276));
#1231=CARTESIAN_POINT('Origin',(-5.97144660940673,20.2586717129657,12.5698816776276));
#1232=CARTESIAN_POINT('',(-5.97144660940673,-15.0984350682208,12.5698816776276));
#1233=CARTESIAN_POINT('Origin',(-10.2214466094067,-15.0984350682208,12.5698816776276));
#1234=CARTESIAN_POINT('',(-63.6285533905933,-15.0984350682208,12.5698816776276));
#1235=CARTESIAN_POINT('Origin',(-63.6285533905933,-13.0984350682208,12.5698816776276));
#1236=UNCERTAINTY_MEASURE_WITH_UNIT(LENGTH_MEASURE(0.01),#1240,
'DISTANCE_ACCURACY_VALUE',
'Maximum model space distance between geometric entities at asserted c
onnectivities');
#1237=UNCERTAINTY_MEASURE_WITH_UNIT(LENGTH_MEASURE(0.01),#1240,
'DISTANCE_ACCURACY_VALUE',
'Maximum model space distance between geometric entities at asserted c
onnectivities');
#1238=(
GEOMETRIC_REPRESENTATION_CONTEXT(3)
GLOBAL_UNCERTAINTY_ASSIGNED_CONTEXT((#1236))
GLOBAL_UNIT_ASSIGNED_CONTEXT((#1240,#1242,#1243))
REPRESENTATION_CONTEXT('','3D')
);
#1239=(
GEOMETRIC_REPRESENTATION_CONTEXT(3)
GLOBAL_UNCERTAINTY_ASSIGNED_CONTEXT((#1237))
GLOBAL_UNIT_ASSIGNED_CONTEXT((#1240,#1242,#1243))
REPRESENTATION_CONTEXT('','3D')
);
#1240=(
LENGTH_UNIT()
NAMED_UNIT(*)
SI_UNIT(.MILLI.,.METRE.)
);
#1241=(
LENGTH_UNIT()
NAMED_UNIT(*)
SI_UNIT($,.METRE.)
);
#1242=(
NAMED_UNIT(*)
PLANE_ANGLE_UNIT()
SI_UNIT($,.RADIAN.)
);
#1243=(
NAMED_UNIT(*)
SI_UNIT($,.STERADIAN.)
SOLID_ANGLE_UNIT()
);
#1244=SHAPE_DEFINITION_REPRESENTATION(#1245,#1246);
#1245=PRODUCT_DEFINITION_SHAPE('',$,#1248);
#1246=SHAPE_REPRESENTATION('',(#740),#1238);
#1247=PRODUCT_DEFINITION_CONTEXT('part definition',#1252,'design');
#1248=PRODUCT_DEFINITION('Keypad','Keypad v25',#1249,#1247);
#1249=PRODUCT_DEFINITION_FORMATION('',$,#1254);
#1250=PRODUCT_RELATED_PRODUCT_CATEGORY('Keypad v25','Keypad v25',(#1254));
#1251=APPLICATION_PROTOCOL_DEFINITION('international standard',
'automotive_design',2009,#1252);
#1252=APPLICATION_CONTEXT(
'Core Data for Automotive Mechanical Design Process');
#1253=PRODUCT_CONTEXT('part definition',#1252,'mechanical');
#1254=PRODUCT('Keypad','Keypad v25',$,(#1253));
#1255=PRESENTATION_STYLE_ASSIGNMENT((#1256));
#1256=SURFACE_STYLE_USAGE(.BOTH.,#1257);
#1257=SURFACE_SIDE_STYLE('',(#1258));
#1258=SURFACE_STYLE_FILL_AREA(#1259);
#1259=FILL_AREA_STYLE('Steel - Satin',(#1260));
#1260=FILL_AREA_STYLE_COLOUR('Steel - Satin',#1261);
#1261=COLOUR_RGB('Steel - Satin',0.627450980392157,0.627450980392157,0.627450980392157);
ENDSEC;
END-ISO-10303-21;
