M48
; DRILL file KiCad 10.0.3 date 2026-10-02T21:07:44
; FORMAT={-:-/ absolute / metric / decimal}
; #@! TF.CreationDate,2026-10-02T21:07:44-04:00
; #@! TF.GenerationSoftware,Kicad,Pcbnew,10.0.3
; #@! TF.FileFunction,Plated,1,2,PTH
FMAT,2
METRIC
; #@! TA.AperFunction,Plated,PTH,ViaDrill
T1C0.300
; #@! TA.AperFunction,Plated,PTH,ComponentDrill
T2C1.000
; #@! TA.AperFunction,Plated,PTH,ComponentDrill
T3C1.500
%
G90
G05
T1
X124.35Y-89.025
X125.7Y-115.65
X125.7Y-119.65
X125.7Y-122.15
X125.7Y-124.15
X128.75Y-87.125
X129.7Y-115.65
X132.5Y-67.5
X134.7Y-91.65
X137.925Y-92.5
X138.1Y-90.225
X139.7Y-72.17
X166.675Y-88.25
T2
X113.075Y-68.03
X113.075Y-70.57
X113.075Y-73.11
X113.075Y-75.65
X113.075Y-78.19
X113.075Y-80.73
X113.075Y-83.27
X128.325Y-68.03
X128.325Y-70.57
X128.325Y-73.11
X128.325Y-75.65
X128.325Y-78.19
X128.325Y-80.73
X128.325Y-83.27
X144.575Y-68.87
X144.575Y-71.41
X144.575Y-73.95
X144.575Y-76.49
X170.44Y-96.43
X170.44Y-98.93
X170.44Y-101.43
X184.94Y-96.43
X184.94Y-101.43
T3
X136.45Y-115.37
X142.8Y-112.83
X155.5Y-96.27
X155.5Y-115.35
X161.85Y-93.73
X161.85Y-112.81
X174.55Y-115.35
X180.9Y-112.81
T3
X177.29Y-93.33G85X178.59Y-93.33
G05
X177.29Y-104.53G85X178.59Y-104.53
G05
M30
